<svg xmlns="http://www.w3.org/2000/svg" width="349" height="102" viewBox="0 0 349 102">
  <g id="Group_2" data-name="Group 2" transform="translate(0.042)">
    <text id="C_VID-19" data-name="C   VID-19" transform="translate(-0.042 83)" font-size="77" font-family="SegoeUI-Bold, Segoe UI" font-weight="700" letter-spacing="-0.022em"><tspan x="0" y="0" xml:space="preserve">C   VID-19</tspan></text>
    <g id="Group_1" data-name="Group 1" transform="translate(45.438 25.177)">
      <ellipse id="Ellipse_1" data-name="Ellipse 1" cx="28.5" cy="28" rx="28.5" ry="28" transform="translate(4.519 4.823)" fill="#ffc1c1"/>
      <g id="XMLID_1497_" transform="translate(0 0)">
        <g id="XMLID_1687_" transform="translate(0 0)">
          <path id="XMLID_898_" d="M35.936,66.065H30.129a3.871,3.871,0,0,1-.968-7.62V56.84a.777.777,0,0,0-.634-.757,23.252,23.252,0,0,1-8.6-3.563.782.782,0,0,0-.989.084L17.79,53.749a3.864,3.864,0,0,1-6.062,4.694L7.622,54.337a3.872,3.872,0,0,1,4.7-6.073l1.135-1.135a.782.782,0,0,0,.084-.989,23.252,23.252,0,0,1-3.563-8.6.778.778,0,0,0-.757-.634h-1.6a3.877,3.877,0,0,1-3.89,2.9A3.888,3.888,0,0,1,0,35.874V30.129a3.871,3.871,0,0,1,4-3.869,3.92,3.92,0,0,1,3.6,2.9H9.226a.777.777,0,0,0,.757-.634,23.252,23.252,0,0,1,3.563-8.6.782.782,0,0,0-.084-.989L12.326,17.8a3.872,3.872,0,0,1-4.7-6.073l4.106-4.106a3.872,3.872,0,0,1,6.073,4.7l1.135,1.135a.782.782,0,0,0,.989.084,23.254,23.254,0,0,1,8.6-3.563.778.778,0,0,0,.634-.757V7.62A3.871,3.871,0,0,1,30.129,0h5.807A3.871,3.871,0,0,1,36.9,7.62V9.226a.777.777,0,0,0,.634.757,23.252,23.252,0,0,1,8.6,3.563.782.782,0,0,0,.989-.084l1.136-1.136a3.871,3.871,0,0,1,6.072-4.7l4.106,4.106a3.872,3.872,0,0,1-4.7,6.073L52.6,18.936a.782.782,0,0,0-.084.989,23.252,23.252,0,0,1,3.563,8.6.778.778,0,0,0,.757.634h1.62a3.908,3.908,0,0,1,3.387-2.888h0a3.871,3.871,0,0,1,4.219,3.856v5.806a3.863,3.863,0,0,1-7.606.968H56.84a.777.777,0,0,0-.757.634,23.252,23.252,0,0,1-3.563,8.6.782.782,0,0,0,.084.989l1.135,1.135a3.872,3.872,0,0,1,4.7,6.073l-4.106,4.106a3.863,3.863,0,0,1-6.062-4.694L47.129,52.6a.782.782,0,0,0-.989-.084,23.254,23.254,0,0,1-8.6,3.563.777.777,0,0,0-.634.757v1.606a3.871,3.871,0,0,1-.968,7.62ZM19.479,49.8a3.374,3.374,0,0,1,1.888.577,20.684,20.684,0,0,0,7.652,3.17,3.362,3.362,0,0,1,2.723,3.29v2.451A1.615,1.615,0,0,1,30.129,60.9a1.29,1.29,0,0,0,0,2.581h5.807a1.29,1.29,0,0,0,0-2.581,1.615,1.615,0,0,1-1.613-1.613V56.84a3.363,3.363,0,0,1,2.723-3.29A20.688,20.688,0,0,0,44.7,50.38a3.367,3.367,0,0,1,4.256.4l1.775,1.775a1.556,1.556,0,0,1,0,2.2,1.329,1.329,0,0,0-.123,1.777,1.291,1.291,0,0,0,1.907.089l4.106-4.106a1.29,1.29,0,0,0-1.825-1.825l-.041.041a1.556,1.556,0,0,1-2.2,0l-1.775-1.775a3.367,3.367,0,0,1-.4-4.256,20.686,20.686,0,0,0,3.17-7.653,3.362,3.362,0,0,1,3.29-2.723h2.509A1.557,1.557,0,0,1,60.9,35.878a1.329,1.329,0,0,0,1.169,1.343,1.291,1.291,0,0,0,1.411-1.285V30.129a1.291,1.291,0,0,0-1.411-1.285A1.329,1.329,0,0,0,60.9,30.188a1.557,1.557,0,0,1-1.555,1.555H56.84a3.363,3.363,0,0,1-3.29-2.723,20.688,20.688,0,0,0-3.17-7.652,3.367,3.367,0,0,1,.4-4.256l1.734-1.734a1.615,1.615,0,0,1,2.281,0,1.29,1.29,0,0,0,1.825-1.825L52.513,9.447a1.29,1.29,0,0,0-1.825,1.825,1.615,1.615,0,0,1,0,2.281l-1.734,1.734a3.367,3.367,0,0,1-4.256.4,20.684,20.684,0,0,0-7.652-3.17,3.363,3.363,0,0,1-2.723-3.29V6.774a1.615,1.615,0,0,1,1.613-1.613,1.29,1.29,0,0,0,0-2.581H30.129a1.29,1.29,0,1,0,0,2.581,1.615,1.615,0,0,1,1.613,1.613V9.226a3.363,3.363,0,0,1-2.723,3.29,20.688,20.688,0,0,0-7.652,3.17,3.367,3.367,0,0,1-4.256-.4l-1.734-1.734a1.613,1.613,0,0,1,0-2.281,1.29,1.29,0,0,0-1.825-1.825L9.447,13.552a1.29,1.29,0,0,0,1.825,1.825,1.615,1.615,0,0,1,2.281,0l1.734,1.734a3.367,3.367,0,0,1,.4,4.256,20.686,20.686,0,0,0-3.17,7.653,3.362,3.362,0,0,1-3.29,2.723H6.707A1.547,1.547,0,0,1,5.161,30.2,1.336,1.336,0,0,0,3.917,28.84a1.291,1.291,0,0,0-1.336,1.29v5.745a1.334,1.334,0,0,0,1.242,1.351,1.291,1.291,0,0,0,1.339-1.29,1.615,1.615,0,0,1,1.613-1.613H9.226a3.363,3.363,0,0,1,3.29,2.723,20.688,20.688,0,0,0,3.17,7.652,3.367,3.367,0,0,1-.4,4.256l-1.775,1.775a1.556,1.556,0,0,1-2.2,0l-.041-.041a1.29,1.29,0,0,0-1.825,1.825l4.106,4.106a1.291,1.291,0,0,0,1.907-.089,1.329,1.329,0,0,0-.123-1.777,1.556,1.556,0,0,1,0-2.2l1.775-1.775a3.342,3.342,0,0,1,2.368-.976Z" transform="translate(0 0)"/>
        </g>
        <g id="XMLID_1654_" transform="translate(22.629 16.759)">
          <path id="XMLID_895_" d="M180.793,140.717a5.419,5.419,0,1,1,5.419-5.419A5.425,5.425,0,0,1,180.793,140.717Zm0-8.258a2.839,2.839,0,1,0,2.839,2.839A2.842,2.842,0,0,0,180.793,132.459Z" transform="translate(-175.374 -129.878)"/>
        </g>
        <g id="XMLID_1656_" transform="translate(19.699 36.534)">
          <path id="XMLID_892_" d="M157.355,292.514a4.688,4.688,0,1,1,4.688-4.688A4.693,4.693,0,0,1,157.355,292.514Zm0-6.8a2.108,2.108,0,1,0,2.107,2.108A2.11,2.11,0,0,0,157.355,285.719Z" transform="translate(-152.667 -283.138)"/>
        </g>
        <g id="XMLID_1104_" transform="translate(34.12 28.73)">
          <path id="XMLID_891_" d="M272.349,238.55a7.965,7.965,0,0,1-7.915-7.037,1.29,1.29,0,1,1,2.563-.3,5.389,5.389,0,1,0,5.951-5.989,1.29,1.29,0,0,1,.283-2.565,7.969,7.969,0,0,1-.882,15.89Z" transform="translate(-264.426 -222.653)"/>
        </g>
        <g id="XMLID_1101_" transform="translate(39.097 20.888)">
          <path id="XMLID_890_" d="M304.29,164.461a1.291,1.291,0,1,1,.912-.378A1.3,1.3,0,0,1,304.29,164.461Z" transform="translate(-303 -161.88)"/>
        </g>
        <g id="XMLID_1094_" transform="translate(31.742 47.097)">
          <path id="XMLID_889_" d="M247.29,367.581a1.291,1.291,0,1,1,.912-.378A1.3,1.3,0,0,1,247.29,367.581Z" transform="translate(-246 -365)"/>
        </g>
        <g id="XMLID_1660_" transform="translate(17.248 31.759)">
          <path id="XMLID_888_" d="M134.96,248.711a1.291,1.291,0,1,1,.912-.378A1.3,1.3,0,0,1,134.96,248.711Z" transform="translate(-133.67 -246.13)"/>
        </g>
        <g id="XMLID_1493_" transform="translate(36.016 30.661)">
          <path id="XMLID_887_" d="M280.41,240.2a1.291,1.291,0,1,1,.912-.378A1.3,1.3,0,0,1,280.41,240.2Z" transform="translate(-279.12 -237.62)"/>
        </g>
      </g>
    </g>
  </g>
</svg>
